<?xml version="1.0" standalone="no"?>
<!DOCTYPE svg PUBLIC "-//W3C//DTD SVG 1.1//EN"
"http://www.w3.org/Graphics/SVG/1.1/DTD/svg11.dtd">

<svg width="638" height="124" view_box="0 0 638 124"
xmlns="http://www.w3.org/2000/svg"
xmlns:link="http://www.w3.org/1999/xlink">\n\n<desc>Généré par Mocodo 2.3.7 le Mon, 08 Jul 2019 06:41:40</desc>

<rect id="frame" x="0" y="0" width="638" height="124" fill="none" stroke="none" stroke-width="0"/>

<!-- Association related to -->
<line x1="57" y1="62" x2="188" y2="62" stroke="#726f83" stroke-width="1"/>
<text x="110" y="78.0" fill="#726f83" font-family="Courier New" font-size="12">0,N</text>
<line x1="319" y1="62" x2="188" y2="62" stroke="#726f83" stroke-width="1"/>
<text x="243" y="78.0" fill="#726f83" font-family="Courier New" font-size="12">0,N</text>
<g id="association-related to">
	<path d="M 224 36 a 14 14 90 0 1 14 14 V 62 h -100 V 50 a 14 14 90 0 1 14 -14" fill="#b2bba4" stroke="#b2bba4" stroke-width="0"/>
	<path d="M 238 62.0 v 12 a 14 14 90 0 1 -14 14 H 152 a 14 14 90 0 1 -14 -14 V 62.0 H 100" fill="#ccd6ba" stroke="#ccd6ba" stroke-width="0"/>
	<rect x="138" y="36" width="100" height="52" fill="none" rx="14" stroke="#85956b" stroke-width="1.5"/>
	<line x1="138" y1="62" x2="238" y2="62" stroke="#85956b" stroke-width="1"/>
	<text x="145" y="54.6" fill="#27360c" font-family="Courier New" font-size="14">related to</text>
</g>

<!-- Association belongs to -->
<line x1="319" y1="62" x2="450" y2="62" stroke="#726f83" stroke-width="1"/>
<text x="372" y="78.0" fill="#726f83" font-family="Courier New" font-size="12">1,1</text>
<line x1="581" y1="62" x2="450" y2="62" stroke="#726f83" stroke-width="1"/>
<text x="505" y="78.0" fill="#726f83" font-family="Courier New" font-size="12">0,N</text>
<g id="association-belongs to">
	<path d="M 486 36 a 14 14 90 0 1 14 14 V 62 h -100 V 50 a 14 14 90 0 1 14 -14" fill="#b2bba4" stroke="#b2bba4" stroke-width="0"/>
	<path d="M 500 62.0 v 12 a 14 14 90 0 1 -14 14 H 414 a 14 14 90 0 1 -14 -14 V 62.0 H 100" fill="#ccd6ba" stroke="#ccd6ba" stroke-width="0"/>
	<rect x="400" y="36" width="100" height="52" fill="none" rx="14" stroke="#85956b" stroke-width="1.5"/>
	<line x1="400" y1="62" x2="500" y2="62" stroke="#85956b" stroke-width="1"/>
	<text x="407" y="54.6" fill="#27360c" font-family="Courier New" font-size="14">belongs to</text>
	<text x="407" y="80.6" fill="#607734" font-family="Courier New" font-size="14">order</text>
</g>

<!-- Entity LIST -->
<g id="entity-LIST">
	<g id="frame-LIST">
		<rect x="533" y="9" width="96" height="26" fill="#97b8ff" stroke="#97b8ff" stroke-width="0"/>
		<rect x="533" y="35.0" width="96" height="80" fill="#c0d4ff" stroke="#c0d4ff" stroke-width="0"/>
		<rect x="533" y="9" width="96" height="106" fill="none" stroke="#578dff" stroke-width="1.5"/>
		<line x1="533" y1="35" x2="629" y2="35" stroke="#578dff" stroke-width="1"/>
	</g>
	<text x="563" y="27.6" fill="#131114" font-family="Courier New" font-size="14">LIST</text>
	<text x="538" y="53.6" fill="#3e3c42" font-family="Courier New" font-size="14">list name</text>
	<line x1="538" y1="56.0" x2="615" y2="56.0" stroke="#3e3c42" stroke-width="1"/>
	<text x="538" y="71.6" fill="#3e3c42" font-family="Courier New" font-size="14">page order</text>
	<text x="538" y="89.6" fill="#3e3c42" font-family="Courier New" font-size="14">created at</text>
	<text x="538" y="107.6" fill="#3e3c42" font-family="Courier New" font-size="14">updated at</text>
</g>

<!-- Entity CARD -->
<g id="entity-CARD">
	<g id="frame-CARD">
		<rect x="271" y="18" width="96" height="26" fill="#97b8ff" stroke="#97b8ff" stroke-width="0"/>
		<rect x="271" y="44.0" width="96" height="62" fill="#c0d4ff" stroke="#c0d4ff" stroke-width="0"/>
		<rect x="271" y="18" width="96" height="88" fill="none" stroke="#578dff" stroke-width="1.5"/>
		<line x1="271" y1="44" x2="367" y2="44" stroke="#578dff" stroke-width="1"/>
	</g>
	<text x="301" y="36.6" fill="#131114" font-family="Courier New" font-size="14">CARD</text>
	<text x="276" y="62.6" fill="#3e3c42" font-family="Courier New" font-size="14">card title</text>
	<line x1="276" y1="65.0" x2="361" y2="65.0" stroke="#3e3c42" stroke-width="1"/>
	<text x="276" y="80.6" fill="#3e3c42" font-family="Courier New" font-size="14">created at</text>
	<text x="276" y="98.6" fill="#3e3c42" font-family="Courier New" font-size="14">updated at</text>
</g>

<!-- Entity LABEL -->
<g id="entity-LABEL">
	<g id="frame-LABEL">
		<rect x="9" y="18" width="96" height="26" fill="#97b8ff" stroke="#97b8ff" stroke-width="0"/>
		<rect x="9" y="44.0" width="96" height="62" fill="#c0d4ff" stroke="#c0d4ff" stroke-width="0"/>
		<rect x="9" y="18" width="96" height="88" fill="none" stroke="#578dff" stroke-width="1.5"/>
		<line x1="9" y1="44" x2="105" y2="44" stroke="#578dff" stroke-width="1"/>
	</g>
	<text x="35" y="36.6" fill="#131114" font-family="Courier New" font-size="14">LABEL</text>
	<text x="14" y="62.6" fill="#3e3c42" font-family="Courier New" font-size="14">label name</text>
	<line x1="14" y1="65.0" x2="99" y2="65.0" stroke="#3e3c42" stroke-width="1"/>
	<text x="14" y="80.6" fill="#3e3c42" font-family="Courier New" font-size="14">created at</text>
	<text x="14" y="98.6" fill="#3e3c42" font-family="Courier New" font-size="14">updated at</text>
</g>
</svg>