<?xml version="1.0" standalone="no"?>
<!DOCTYPE svg PUBLIC "-//W3C//DTD SVG 1.1//EN"
"http://www.w3.org/Graphics/SVG/1.1/DTD/svg11.dtd">

<svg width="560" height="88" view_box="0 0 560 88"
xmlns="http://www.w3.org/2000/svg"
xmlns:link="http://www.w3.org/1999/xlink">\n\n<desc>Généré par Mocodo 2.3.7 le Thu, 16 Jan 2020 01:04:46</desc>

<rect id="frame" x="0" y="0" width="560" height="88" fill="none" stroke="none" stroke-width="0"/>

<!-- Association APPARTIENT À -->
<line x1="280" y1="44" x2="154" y2="44" stroke="#726f83" stroke-width="1"/>
<text x="217" y="60.0" fill="#726f83" font-family="Courier New" font-size="12">1,1</text>
<line x1="36" y1="44" x2="154" y2="44" stroke="#726f83" stroke-width="1"/>
<text x="68" y="60.0" fill="#726f83" font-family="Courier New" font-size="12">0,N</text>
<g id="association-APPARTIENT À">
	<path d="M 198 18 a 14 14 90 0 1 14 14 V 44 h -116 V 32 a 14 14 90 0 1 14 -14" fill="#b2bba4" stroke="#b2bba4" stroke-width="0"/>
	<path d="M 212 44.0 v 12 a 14 14 90 0 1 -14 14 H 110 a 14 14 90 0 1 -14 -14 V 44.0 H 116" fill="#ccd6ba" stroke="#ccd6ba" stroke-width="0"/>
	<rect x="96" y="18" width="116" height="52" fill="none" rx="14" stroke="#85956b" stroke-width="1.5"/>
	<line x1="96" y1="44" x2="212" y2="44" stroke="#85956b" stroke-width="1"/>
	<text x="103" y="36.6" fill="#27360c" font-family="Courier New" font-size="14">APPARTIENT À</text>
	<text x="103" y="62.6" fill="#607734" font-family="Courier New" font-size="14">position</text>
</g>

<!-- Association CATEGORISE -->
<line x1="516" y1="44" x2="398" y2="44" stroke="#726f83" stroke-width="1"/>
<text x="453" y="60.0" fill="#726f83" font-family="Courier New" font-size="12">0,N</text>
<line x1="280" y1="44" x2="398" y2="44" stroke="#726f83" stroke-width="1"/>
<text x="320" y="60.0" fill="#726f83" font-family="Courier New" font-size="12">0,N</text>
<g id="association-CATEGORISE">
	<path d="M 434 18 a 14 14 90 0 1 14 14 V 44 h -100 V 32 a 14 14 90 0 1 14 -14" fill="#b2bba4" stroke="#b2bba4" stroke-width="0"/>
	<path d="M 448 44.0 v 12 a 14 14 90 0 1 -14 14 H 362 a 14 14 90 0 1 -14 -14 V 44.0 H 100" fill="#ccd6ba" stroke="#ccd6ba" stroke-width="0"/>
	<rect x="348" y="18" width="100" height="52" fill="none" rx="14" stroke="#85956b" stroke-width="1.5"/>
	<line x1="348" y1="44" x2="448" y2="44" stroke="#85956b" stroke-width="1"/>
	<text x="355" y="36.6" fill="#27360c" font-family="Courier New" font-size="14">CATEGORISE</text>
</g>

<!-- Entity LISTE -->
<g id="entity-LISTE">
	<g id="frame-LISTE">
		<rect x="9" y="18" width="54" height="26" fill="#97b8ff" stroke="#97b8ff" stroke-width="0"/>
		<rect x="9" y="44.0" width="54" height="26" fill="#c0d4ff" stroke="#c0d4ff" stroke-width="0"/>
		<rect x="9" y="18" width="54" height="52" fill="none" stroke="#578dff" stroke-width="1.5"/>
		<line x1="9" y1="44" x2="63" y2="44" stroke="#578dff" stroke-width="1"/>
	</g>
	<text x="14" y="36.6" fill="#131114" font-family="Courier New" font-size="14">LISTE</text>
	<text x="14" y="62.6" fill="#3e3c42" font-family="Courier New" font-size="14">nom</text>
	<line x1="14" y1="65.0" x2="40" y2="65.0" stroke="#3e3c42" stroke-width="1"/>
</g>

<!-- Entity CARTE -->
<g id="entity-CARTE">
	<g id="frame-CARTE">
		<rect x="245" y="9" width="70" height="26" fill="#97b8ff" stroke="#97b8ff" stroke-width="0"/>
		<rect x="245" y="35.0" width="70" height="44" fill="#c0d4ff" stroke="#c0d4ff" stroke-width="0"/>
		<rect x="245" y="9" width="70" height="70" fill="none" stroke="#578dff" stroke-width="1.5"/>
		<line x1="245" y1="35" x2="315" y2="35" stroke="#578dff" stroke-width="1"/>
	</g>
	<text x="258" y="27.6" fill="#131114" font-family="Courier New" font-size="14">CARTE</text>
	<text x="250" y="53.6" fill="#3e3c42" font-family="Courier New" font-size="14">titre</text>
	<line x1="250" y1="56.0" x2="293" y2="56.0" stroke="#3e3c42" stroke-width="1"/>
	<text x="250" y="71.6" fill="#3e3c42" font-family="Courier New" font-size="14">couleur</text>
</g>

<!-- Entity LABEL -->
<g id="entity-LABEL">
	<g id="frame-LABEL">
		<rect x="481" y="9" width="70" height="26" fill="#97b8ff" stroke="#97b8ff" stroke-width="0"/>
		<rect x="481" y="35.0" width="70" height="44" fill="#c0d4ff" stroke="#c0d4ff" stroke-width="0"/>
		<rect x="481" y="9" width="70" height="70" fill="none" stroke="#578dff" stroke-width="1.5"/>
		<line x1="481" y1="35" x2="551" y2="35" stroke="#578dff" stroke-width="1"/>
	</g>
	<text x="494" y="27.6" fill="#131114" font-family="Courier New" font-size="14">LABEL</text>
	<text x="486" y="53.6" fill="#3e3c42" font-family="Courier New" font-size="14">libellé</text>
	<line x1="486" y1="56.0" x2="546" y2="56.0" stroke="#3e3c42" stroke-width="1"/>
	<text x="486" y="71.6" fill="#3e3c42" font-family="Courier New" font-size="14">couleur</text>
</g>
</svg>